<svg xmlns="http://www.w3.org/2000/svg" width="40" height="40" fill="none" viewBox="0 0 40 40"><circle cx="20" cy="20" r="20" fill="url(#a)"/><circle cx="20" cy="20" r="20" fill="url(#b)"/><g clip-path="url(#c)"><path fill="#fff" d="M20 10c-4.135 0-7.5 3.388-7.5 7.554 0 5.92 6.795 12.031 7.084 12.288a.624.624 0 0 0 .832 0c.289-.257 7.084-6.369 7.084-12.288C27.5 13.388 24.135 10 20 10m0 11.667a4.17 4.17 0 0 1-4.167-4.167A4.17 4.17 0 0 1 20 13.333a4.17 4.17 0 0 1 4.167 4.167A4.17 4.17 0 0 1 20 21.667"/></g><defs><linearGradient id="a" x1="0" x2="42.756" y1="0" y2="3.203" gradientUnits="userSpaceOnUse"><stop stop-color="#7171ff"/><stop offset="1" stop-color="#4949ec"/></linearGradient><linearGradient id="b" x1="0" x2="42.756" y1="0" y2="3.203" gradientUnits="userSpaceOnUse"><stop stop-color="#7171ff"/><stop offset="1" stop-color="#4949ec"/></linearGradient><clipPath id="c"><path fill="#fff" d="M10 10h20v20H10z"/></clipPath></defs></svg>