<svg xmlns="http://www.w3.org/2000/svg" width="40" height="40" fill="none" viewBox="0 0 40 40"><circle cx="20" cy="20" r="20" fill="url(#a)"/><circle cx="20" cy="20" r="20" fill="url(#b)"/><g clip-path="url(#c)"><path fill="#fff" d="M28.691 24.229a14.2 14.2 0 0 1-4.477-1.169 1.426 1.426 0 0 0-1.863.65l-.971 1.929a18.04 18.04 0 0 1-7.019-7.02l1.928-.97c.68-.342.967-1.16.652-1.863a14 14 0 0 1-1.17-4.477A1.42 1.42 0 0 0 14.357 10h-3.643a.715.715 0 0 0-.714.714c0 2.909.634 5.713 1.884 8.339a19.46 19.46 0 0 0 9.066 9.064A19.2 19.2 0 0 0 29.286 30c.394 0 .714-.32.714-.714v-3.643c0-.739-.563-1.347-1.309-1.414"/></g><defs><linearGradient id="a" x1="0" x2="42.756" y1="0" y2="3.203" gradientUnits="userSpaceOnUse"><stop stop-color="#7171ff"/><stop offset="1" stop-color="#4949ec"/></linearGradient><linearGradient id="b" x1="0" x2="42.756" y1="0" y2="3.203" gradientUnits="userSpaceOnUse"><stop stop-color="#7171ff"/><stop offset="1" stop-color="#4949ec"/></linearGradient><clipPath id="c"><path fill="#fff" d="M10 10h20v20H10z"/></clipPath></defs></svg>