<svg xmlns="http://www.w3.org/2000/svg" width="40" height="40" fill="none" viewBox="0 0 40 40"><circle cx="20" cy="20" r="20" fill="url(#a)"/><circle cx="20" cy="20" r="20" fill="url(#b)"/><g clip-path="url(#c)"><path fill="#fff" d="M20 10c-5.514 0-10 4.486-10 10s4.486 10 10 10 10-4.486 10-10-4.486-10-10-10m4.756 15.172a.83.83 0 0 1-1.178 0l-4.167-4.166a.83.83 0 0 1-.244-.59V15a.833.833 0 1 1 1.666 0v5.072l3.923 3.922a.833.833 0 0 1 0 1.178"/></g><defs><linearGradient id="a" x1="0" x2="42.756" y1="0" y2="3.203" gradientUnits="userSpaceOnUse"><stop stop-color="#7171ff"/><stop offset="1" stop-color="#4949ec"/></linearGradient><linearGradient id="b" x1="0" x2="42.756" y1="0" y2="3.203" gradientUnits="userSpaceOnUse"><stop stop-color="#7171ff"/><stop offset="1" stop-color="#4949ec"/></linearGradient><clipPath id="c"><path fill="#fff" d="M10 10h20v20H10z"/></clipPath></defs></svg>