<svg xmlns="http://www.w3.org/2000/svg" width="24" height="24" fill="none" viewBox="0 0 24 24"><path fill="#fff" fill-rule="evenodd" d="m5.74 17.032.167-.618-.33-.548a7.5 7.5 0 1 1 3.563 3.067l-.52-.214-.532.179-3.135 1.053zm-1.26 4.66h.003l4.083-1.372c1.06.438 2.221.68 3.439.68a9 9 0 1 0-7.713-4.359l-1.048 3.884v.003l-.03.111-.196.725a.5.5 0 0 0 .642.604l.711-.239zM10.56 9.716c-.151-.895-.786-2.184-.953-2.215-1.41-.267-2.403 1.169-2.101 2.558.317 1.46 1.059 2.859 2.495 4.225 1.437 1.367 3.026 2.185 4.235 2.185s2.498-.78 2.161-2.272c-.227-.188-1.391-.965-1.83-1.044-.382-.068-.626.27-.833.555l-.089.12c-.227.3-.408.456-.605.456-.196 0-.982-.314-1.905-1.225-.922-.911-1.419-1.6-1.24-1.948.038-.073.11-.166.193-.272.229-.294.544-.698.472-1.123" clip-rule="evenodd"/></svg>